<svg version="1.0" xmlns="http://www.w3.org/2000/svg"
 width="512.000000pt" height="512.000000pt" viewBox="0 0 512.000000 512.000000"
 preserveAspectRatio="xMidYMid meet">

<g transform="translate(0.000000,512.000000) scale(0.100000,-0.100000)"
fill="#FFF" stroke="none">
<path d="M4565 5103 c-28 -10 -66 -29 -85 -43 -87 -61 -628 -500 -653 -530
-15 -18 -33 -52 -40 -77 -10 -39 -18 -47 -69 -75 -31 -17 -63 -40 -71 -52 -7
-11 -35 -75 -61 -141 -26 -66 -49 -121 -51 -123 -1 -1 -83 37 -182 86 -107 53
-204 93 -238 100 -121 25 -273 8 -368 -39 -115 -57 -130 -73 -620 -659 l-480
-575 -796 -213 c-678 -181 -799 -216 -821 -237 l-25 -25 -3 -780 c-2 -679 0
-784 13 -809 12 -24 166 -116 786 -470 425 -243 781 -441 793 -441 12 0 795
242 1741 537 1587 496 1723 540 1753 569 l32 32 -2 785 -3 785 -24 26 c-13 13
-131 86 -262 161 l-238 136 38 54 c21 30 44 75 51 100 17 60 8 168 -18 227
-43 98 -76 120 -522 343 -359 179 -410 208 -405 225 3 10 23 61 44 112 47 116
72 136 141 112 28 -10 61 -14 87 -10 64 8 880 244 925 267 58 30 126 102 156
167 23 48 27 70 27 142 -1 70 -5 95 -27 142 -34 73 -103 142 -176 176 -50 23
-73 26 -177 29 -96 3 -130 0 -170 -14z m255 -209 c22 -9 50 -30 62 -47 41 -58
19 -160 -41 -191 -16 -9 -197 -63 -402 -122 -206 -59 -380 -109 -386 -111 -7
-3 -13 0 -13 6 0 17 550 453 590 467 49 18 142 17 190 -2z m-1739 -855 c19 -6
109 -47 202 -92 169 -82 183 -93 155 -129 -7 -9 -242 -154 -523 -323 -280
-168 -523 -320 -539 -337 -25 -27 -28 -36 -23 -77 6 -58 41 -91 97 -91 32 0
120 49 592 333 l553 332 25 52 c14 29 29 52 33 53 4 0 183 -88 398 -195 417
-210 429 -218 429 -290 0 -41 -34 -92 -72 -110 -30 -14 -2904 -735 -2928 -735
-15 0 1228 1488 1284 1537 27 23 71 51 100 62 57 22 163 27 217 10z m1459
-1225 c102 -58 189 -109 193 -113 7 -7 -3091 -981 -3118 -981 -13 0 -1226 693
-1221 697 6 6 1001 270 1005 267 2 -2 -50 -68 -116 -146 -216 -259 -213 -255
-213 -297 0 -47 28 -86 73 -100 27 -9 62 -3 223 38 l191 48 164 -99 c188 -112
218 -120 270 -69 29 29 33 43 29 91 -3 42 -18 58 -91 101 -38 23 -66 45 -62
49 4 4 95 29 200 55 l193 47 137 -81 c75 -44 147 -81 160 -81 39 0 84 29 98
64 22 52 4 100 -51 138 -24 18 -43 33 -41 34 1 2 92 25 201 52 l198 50 100
-60 c104 -63 145 -74 192 -49 37 20 58 70 46 111 -5 18 -17 41 -25 50 -9 10
-13 20 -8 23 4 2 96 26 203 52 l196 48 70 -41 c88 -53 132 -56 175 -13 16 16
30 38 30 48 1 10 2 31 3 47 l1 30 185 47 c102 26 194 48 205 48 11 1 103 -47
205 -105z m370 -927 l0 -634 -1600 -500 -1600 -500 2 636 3 635 1590 498 c875
273 1593 497 1598 497 4 1 7 -284 7 -632z m-4045 11 l620 -355 3 -622 c1 -341
-1 -621 -4 -621 -4 0 -292 163 -640 362 l-634 362 0 619 c0 585 1 619 18 614
9 -2 296 -164 637 -359z"/>
</g>
</svg>
